<svg version="1.1" id="Layer_1" xmlns="http://www.w3.org/2000/svg" xmlns:xlink="http://www.w3.org/1999/xlink" x="0px" y="0px"
	 viewBox="0 0 200 200" style="enable-background:new 0 0 200 200;" xml:space="preserve">
<style type="text/css">
	.st0{fill:#3F97FB;}
	.st1{opacity:0.8;clip-path:url(#SVGID_00000056419491093602224500000006716244308220063906_);}
	.st2{opacity:0.4;}
	.st3{fill:#FFFFFF;}
	.st4{fill:#F8B62D;}
	.st5{fill:#46C864;}
</style>
<g id="Layer_2_00000182498822849650818170000010101740125341014716_">
</g>
<g>
	<path class="st0" d="M63.4,153.6c-0.3-0.3-0.6-0.5-1-0.6c-0.4-0.1-0.8-0.2-1.3-0.2c-0.8,0-1.7,0.3-2.3,0.8c-0.7,0.6-1,1.5-1,2.5v9
		h-4.4v-2.6c0-1.5-0.2-2.8-0.6-4c-0.4-1.1-1-2.2-1.9-2.9c-0.8-0.8-1.8-1.4-2.9-1.8c-1.1-0.4-2.4-0.6-3.8-0.6c-1.4,0-2.6,0.2-3.8,0.6
		c-1.1,0.4-2.1,1-2.9,1.8c-0.8,0.8-1.5,1.8-1.9,2.9c-0.4,1.1-0.6,2.5-0.6,4V175c0,1.5,0.2,2.8,0.6,4c0.4,1.1,1,2.2,1.9,2.9
		c0.8,0.8,1.8,1.4,2.9,1.8c1.1,0.4,2.4,0.6,3.8,0.6c1.4,0,2.6-0.2,3.8-0.6c1.1-0.4,2.1-1,2.9-1.8c0.8-0.8,1.5-1.8,1.9-2.9
		c0.4-1.1,0.6-2.5,0.6-4v-4.1h4.4c0,0,0,14,0,14h6.7v-28.8c0-0.5-0.1-1-0.3-1.5C63.9,154.2,63.7,153.9,63.4,153.6z M46.8,175.2
		c0,1.1-0.2,2.1-0.7,2.6c-0.5,0.5-1.1,0.8-2,0.8c-0.8,0-1.5-0.3-2-0.8c-0.5-0.6-0.7-1.5-0.7-2.6v-12.9c0-1.1,0.2-2.1,0.7-2.6
		s1.1-0.8,2-0.8c0.8,0,1.5,0.3,2,0.8c0.5,0.6,0.7,1.5,0.7,2.6V175.2z"/>
	<path class="st0" d="M67.4,172.2c0.6,0.4,1.4,0.6,2.2,0.6c1.1-0.1,2.2-0.3,3.3-0.6c1-0.3,2.2-0.8,3.2-1.5c1-0.6,2.1-1.5,3-2.3
		c0.9-0.8,1.9-1.9,2.6-2.9c0.9,0,1.9,0.1,2.8,0.4c0.9,0.3,1.7,0.8,2.4,1.5c0.7,0.6,1.3,1.4,1.8,2.3c0.5,0.9,0.8,2,0.9,3.1h6.8
		c-0.1-2.2-0.6-4.1-1.4-5.6c-0.7-1.6-1.7-2.9-2.8-4c-1.1-1-2.4-1.9-3.8-2.4c-1.4-0.5-2.8-0.8-4.2-0.8c0.3-1,0.5-2.1,0.5-3.1
		c0-1-0.3-1.9-0.8-2.5c-0.5-0.6-1.4-0.9-2.3-1c-0.9-0.1-1.8,0.1-2.5,0.6c-0.7,0.5-1.1,1.4-1.3,2.4c-0.2,1.5-0.6,2.8-1.1,4
		c-0.5,1.1-1.3,2.2-2.1,3.1c-0.8,0.8-1.8,1.6-2.8,2.2c-1,0.6-2.2,1-3.2,1.3c-0.8,0.1-1.5,0.5-1.9,1.1c-0.4,0.6-0.6,1.4-0.5,2.2
		C66.5,171,66.8,171.7,67.4,172.2z"/>
	<path class="st0" d="M96.7,179.3c-0.3-0.2-0.5-0.4-0.9-0.6c-0.4-0.1-0.8-0.2-1.4-0.2H68.5c-0.5,0-0.9,0-1.4,0.2
		c-0.4,0.1-0.7,0.3-0.9,0.6c-0.2,0.3-0.4,0.6-0.5,0.9c-0.1,0.3-0.1,0.7-0.1,1s0.1,0.7,0.2,1c0.1,0.3,0.3,0.6,0.5,0.9
		c0.3,0.2,0.6,0.4,0.9,0.6c0.4,0.1,0.8,0.2,1.4,0.2h25.6c0.5,0,1,0,1.4-0.2c0.4-0.1,0.7-0.3,0.9-0.6c0.2-0.3,0.4-0.6,0.5-0.9
		c0.1-0.3,0.2-0.7,0.2-1s0-0.7-0.1-1C97.1,179.9,96.9,179.6,96.7,179.3z"/>
	<path class="st0" d="M118,154.9c-0.3-0.4-0.8-0.7-1.6-0.9c-0.7-0.2-1.7-0.3-2.7-0.3h-7.8c-1.1,0-2,0.1-2.7,0.3
		c-0.6,0.2-1.1,0.5-1.6,0.9c-0.3,0.4-0.6,1-0.7,1.8c-0.1,0.7-0.2,1.7-0.2,2.7v18.4c0,1,0.1,2,0.2,2.7c0.1,0.7,0.3,1.4,0.7,1.8
		c0.3,0.4,0.8,0.7,1.6,0.9s1.7,0.3,2.7,0.3v-0.1h13.1v-24c0-1-0.1-2-0.2-2.7C118.6,156,118.4,155.3,118,154.9z M112.3,178.1h-4.1
		c-0.5,0-0.8-0.1-0.9-0.3c-0.1-0.1-0.2-0.4-0.2-0.8v-16.5c0-0.3,0-0.6,0.1-0.8c0.1-0.2,0.3-0.3,0.7-0.3h3.4c0.4,0,0.6,0.1,0.7,0.3
		c0.1,0.2,0.2,0.5,0.2,0.8V178.1z"/>
	<path class="st0" d="M132.5,165.8c-0.2-0.3-0.5-0.5-0.8-0.7c-0.3-0.2-0.7-0.3-1.3-0.3h-1.1v-8.7c0-0.5-0.1-1-0.3-1.5
		c-0.2-0.4-0.4-0.7-0.7-1c-0.3-0.3-0.6-0.5-1-0.6c-0.4-0.1-0.8-0.2-1.3-0.2c-0.8,0-1.7,0.3-2.3,0.8c-0.7,0.6-1,1.5-1,2.5h-0.1V185
		h6.7v-14.2h1.3c0.5,0,0.9-0.1,1.3-0.3c0.3-0.2,0.6-0.4,0.8-0.7c0.2-0.3,0.3-0.6,0.4-0.9c0.1-0.3,0.1-0.7,0.1-1c0-0.3,0-0.7-0.1-1
		C132.8,166.4,132.7,166.1,132.5,165.8z"/>
	<path class="st0" d="M163.4,180.5c-0.7-1.3-1.7-2.2-2.8-2.9c-1.1-0.7-2.3-1.3-3.7-1.6c-1.4-0.3-2.7-0.4-4-0.4c0-1.1-0.3-1.9-1-2.3
		c-0.6-0.4-1.4-0.7-2.2-0.7c-0.8,0-1.6,0.1-2.2,0.5c-0.5,0.3-1.1,1.1-1.6,2.2c-0.3,0.7-0.8,1.5-1.5,2c-0.7,0.5-1.5,1-2.3,1.4
		c-0.8,0.3-1.7,0.6-2.5,0.7c-0.8,0.1-1.7,0.1-2.4,0.1c-0.7,0-1.5,0.2-2,0.6c-0.6,0.4-0.9,1-0.9,1.9c0,0.9,0.2,1.7,0.7,2.2
		c0.5,0.5,1.1,0.8,2,0.9c1,0.1,2.2,0.1,3.3-0.1c1.3-0.2,2.4-0.4,3.7-0.8c1.1-0.3,2.4-0.8,3.4-1.5c1.1-0.6,2.1-1.3,2.9-2.1
		c0.9-0.2,1.8-0.1,2.6,0c0.8,0.2,1.7,0.4,2.3,0.8c0.6,0.4,1.1,0.8,1.7,1.5c0.5,0.6,0.8,1.3,1,2h6.9
		C164.7,183.1,164.2,181.7,163.4,180.5z"/>
	<path class="st0" d="M158.2,173h5.9v-17.3c0-0.9-0.3-1.7-0.9-2.2c-0.6-0.5-1.4-0.7-2.1-0.7c-0.8,0-1.5,0.2-2.1,0.7
		c-0.5,0.5-0.8,1.3-0.8,2.2h0.1V173z"/>
	<path class="st0" d="M136.2,173c0.1,0,0.3,0,0.5,0c1.3,0,2.6-0.1,3.8-0.4c1.1-0.3,2.3-0.7,3.2-1.4c1-0.6,1.9-1.4,2.6-2.3
		c0.8-0.9,1.4-2,1.8-3.2h2.7v6.3h5.7v-16.2c0-0.9-0.2-1.7-0.8-2.2c-0.5-0.5-1.3-0.7-2-0.7c-0.7,0-1.5,0.2-2,0.7
		c-0.5,0.5-0.8,1.3-0.8,2.2v4.5h-2.1V158c0-1.4-0.3-2.4-0.9-3.1c-0.5-0.7-1.7-1-3.3-1h-8.5c-0.4,0-0.7,0-1,0.2
		c-0.3,0.2-0.5,0.4-0.7,0.6c-0.2,0.3-0.3,0.5-0.4,0.8c-0.1,0.3-0.1,0.6-0.1,0.9c0,0.3,0,0.6,0.1,0.9c0.1,0.3,0.2,0.5,0.4,0.8
		c0.2,0.2,0.4,0.4,0.7,0.6c0.2,0.1,0.6,0.2,1,0.2h6.7c0.4,0,0.6,0.2,0.6,0.6v1h-7.6c-0.4,0-0.7,0.1-1,0.2c-0.3,0.2-0.5,0.4-0.7,0.6
		c-0.2,0.3-0.3,0.5-0.4,0.8c-0.1,0.2-0.1,0.5-0.1,0.8c0,0.2,0,0.5,0.1,0.8c0.1,0.2,0.2,0.5,0.4,0.7c0.2,0.2,0.4,0.4,0.7,0.5
		c0.2,0.1,0.6,0.2,1,0.2h4.5c0.6,0,1.4-0.2,2-0.4c-1.3,1.8-3.4,2.6-6.5,2.5c-0.7,0-1.4,0.2-1.8,0.8c-0.4,0.4-0.7,0.9-0.7,1.7
		c0,0.8,0.2,1.5,0.6,1.9c0.4,0.4,1,0.7,1.8,0.8C135.7,173,135.9,173,136.2,173z"/>
</g>
<g>
	<g>
		<path class="st0" d="M100.7,108.1v24.7c0,0.1,0,0.2,0,0.3c0,3.3,2.5,6,5.6,6.4v0.1h13.8v-31.4H100.7z"/>
		<path class="st0" d="M97.6,108.1H78.1v31.4h12.6v0c0.1,0,0.3,0,0.4,0c3.6,0,6.5-2.9,6.5-6.4c0-0.1,0-0.2,0-0.3V108.1z"/>
	</g>
	<g>
		<defs>
			<path id="SVGID_1_" d="M78.1,108.1v31.4h12.6v-6.2h6.8v-25.2H78.1z M100.7,108.1v25.2h5.6v6.2h13.8v-31.4H100.7z"/>
		</defs>
		<clipPath id="SVGID_00000161605775541830866520000003058636384154981509_">
			<use xlink:href="#SVGID_1_"  style="overflow:visible;"/>
		</clipPath>
		<g style="opacity:0.8;clip-path:url(#SVGID_00000161605775541830866520000003058636384154981509_);">
			<g>
				<defs>
					<rect id="SVGID_00000000198537513917160190000000920516378016324236_" x="12.9" y="-17.1" width="175.7" height="144.5"/>
				</defs>
				<clipPath id="SVGID_00000147182547304032208920000000335057760264711333_">
					<use xlink:href="#SVGID_00000000198537513917160190000000920516378016324236_"  style="overflow:visible;"/>
				</clipPath>
				<g style="clip-path:url(#SVGID_00000147182547304032208920000000335057760264711333_);">
					
						<image style="overflow:visible;" width="140" height="233" xlink:href="E0A5D80D459C9D55.png"  transform="matrix(0.7482 0 0 0.7482 49.366 13.1142)">
					</image>
				</g>
			</g>
		</g>
	</g>
	<g>
		<path class="st0" d="M99.2,113.7c27.2,0,49.3-18.2,49.3-40.6c0-22.4-22.1-40.6-49.3-40.6S49.9,50.6,49.9,73.1
			C49.9,95.5,71.9,113.7,99.2,113.7"/>
		<g>
			<g class="st2">
				<g>
					<path class="st3" d="M99.2,32.4c-0.8,0-1.5,0.1-2.3,0.1c0.5,1.2,1.2,2.4,2.1,3.3c1.5,1.6,3.5,2.8,5.5,3.8c2,1,4.1,1.9,6.3,2.4
						c1.3,0.3,2.5,0.5,3.8,0.6c1.1,0.1,2.3-0.1,3.4,0.1c0.9,0.2,1.7,0.1,2.6,0c0.5,0,1.1-0.1,1.4,0.4c0.3,0.5,0.2,1.5,0.3,2.1
						c0.1,0.9,0.3,1.9,0.5,2.8c0.2,1,0.5,2,0.9,3c0.5,1.5,1.2,3,2.1,4.4c0.9,1.5,2.1,2.8,3.4,4c1.5,1.3,3.3,2.2,5.1,2.9
						c2.3,0.8,4.7,1,7.1,1c0.3,0,0.7-0.1,1,0c0,0,1.8,0.1,4.2-1.4C140.5,44.8,121.6,32.4,99.2,32.4"/>
				</g>
			</g>
			<g class="st2">
				<g>
					<path class="st3" d="M67.2,104c1.7,0.8,2.8,1.2,2.8,1.2c14-8.9,4.3-14.2,4.3-14.2c-1.1-0.9,0-1.8,0-1.8
						c11.9-3.6,9.7-13.4,9.7-13.4c-2.2-13.4-18.3-10.7-18.3-10.7c-2.2,0-2.2-0.9-2.2-0.9c-1.5-6.9-4.1-10.4-6.5-12.3
						c-4.6,6.2-7.2,13.4-7.2,21.1C49.9,85.4,56.6,96.5,67.2,104"/>
				</g>
			</g>
			<g class="st2">
				<g>
					<path class="st3" d="M132.2,87c-0.5,0.8-1.3,1.6-2.4,0.9c-2.1-1.2-4.7-1.4-7.1-1.3c-2.6,0.1-5.5,0.2-7.8,1.3
						c-0.9,0.4-1.7,1-2.3,1.7c-2.5,2.6-3.3,6.6-2.1,9.8c1.4,3.7,5.3,5.4,9.6,6.1c1.3,0.2,2.5,0.3,3.8,0.2c0.9,0,1.6-0.2,2.3-0.4
						c0.3-0.1,0.6-0.1,0.9-0.2c1-0.2,1.2,0.1,1.3,0.6c9.6-5.9,16.6-14.6,19-24.7C136.8,79.5,132.2,87,132.2,87"/>
				</g>
			</g>
			<path class="st4" d="M111.8,29.8c0.1-0.7,0.2-1.4,0.2-2.2c0-7.1-5.7-12.8-12.8-12.8c-7.1,0-12.8,5.7-12.8,12.8
				c0,0.7,0.1,1.5,0.2,2.2c-6.9,1.1-11.4,3-11.4,5.2c0,3.4,10.8,6.1,24.1,6.1s24.1-2.7,24.1-6.1C123.2,32.8,118.6,30.9,111.8,29.8"
				/>
			<path class="st5" d="M97.6,23.1c-2.4-0.3-5,0.4-6.8,2.2c-0.9,0.9-1.5,2-1.9,3.2c-0.4-1.2-1-2.2-1.9-3.2c-1.9-1.9-4.4-2.5-6.8-2.2
				c-0.3,2.4,0.4,5,2.2,6.8c1.8,1.8,4.2,2.4,6.5,2.2c2.3,0.2,4.7-0.4,6.5-2.2C97.2,28.1,97.9,25.6,97.6,23.1z"/>
		</g>
	</g>
	<g>
		<path class="st3" d="M99.2,80.1c-6.7,0-8.4-6.4-8.4-9.8c0-1.3,1-2.3,2.3-2.3s2.3,1,2.3,2.3c0,0.5,0.2,5.1,3.8,5.1
			c3.7,0,3.8-4.9,3.8-5.1c0-1.3,1-2.3,2.3-2.3s2.3,1,2.3,2.3C107.6,73.6,105.8,80.1,99.2,80.1z"/>
		<path class="st3" d="M92.9,63.6c-1.3,0-2.3-1-2.3-2.3v-3.8c0-1.3,1-2.3,2.3-2.3s2.3,1,2.3,2.3v3.8C95.3,62.5,94.2,63.6,92.9,63.6z
			"/>
		<path class="st3" d="M105.4,63.6c-1.3,0-2.3-1-2.3-2.3v-3.8c0-1.3,1-2.3,2.3-2.3c1.3,0,2.3,1,2.3,2.3v3.8
			C107.7,62.5,106.7,63.6,105.4,63.6z"/>
	</g>
	<path class="st0" d="M78,139.5c6.4,0,11.6-5.2,11.6-11.6c0-6.4-5.2-11.6-11.6-11.6c-6.4,0-11.6,5.2-11.6,11.6
		C66.4,134.3,71.6,139.5,78,139.5"/>
	<path class="st0" d="M120,139.5c6.4,0,11.6-5.2,11.6-11.6c0-6.4-5.2-11.6-11.6-11.6c-6.4,0-11.6,5.2-11.6,11.6
		C108.4,134.3,113.6,139.5,120,139.5"/>
</g>
</svg>
