<?xml version="1.0" encoding="utf-8"?>
<!-- Generator: Adobe Illustrator 26.0.3, SVG Export Plug-In . SVG Version: 6.00 Build 0)  -->
<svg version="1.1" id="Layer_1" xmlns="http://www.w3.org/2000/svg" xmlns:xlink="http://www.w3.org/1999/xlink" x="0px" y="0px"
	 viewBox="0 0 200 200" style="enable-background:new 0 0 200 200;" xml:space="preserve">
<style type="text/css">
	.st0{fill:#3F97FB;}
	.st1{opacity:0.8;clip-path:url(#SVGID_00000032622982380286579330000005128477756514313373_);}
	.st2{clip-path:url(#SVGID_00000091007028172694764630000015976617620614351745_);filter:url(#f1);}
	.st3{fill:#3F85FA;}
	.st4{opacity:0.4;}
	.st5{fill:#FFFFFF;}
	.st6{fill:#F8B62D;}
	.st7{fill:#46C864;}
</style>
<filter  height="200%" id="f1" width="200%" x="0" y="0">
	<feOffset  dx="0" dy="5" in="SourceGraphic" result="offOut"></feOffset>
	<feGaussianBlur  in="offOut" result="blurOut" stdDeviation="5"></feGaussianBlur>
	<feBlend  in="SourceGraphic" in2="blurOut" mode="normal"></feBlend>
</filter>
<g id="Layer_1_00000147900597351949854610000002226058522639562401_">
	<g>
		<g>
			<path class="st0" d="M59.7,167.3h-4.2v3.9c0,1.4-0.2,2.7-0.6,3.8c-0.4,1.1-1,2-1.8,2.8c-0.8,0.7-1.7,1.3-2.8,1.7
				s-2.3,0.6-3.6,0.6s-2.5-0.2-3.6-0.6c-1.1-0.4-2-0.9-2.8-1.7c-0.8-0.7-1.4-1.7-1.8-2.8c-0.4-1.1-0.6-2.4-0.6-3.8v-12
				c0-1.4,0.2-2.7,0.6-3.8c0.4-1.1,1-2,1.8-2.8c0.8-0.7,1.7-1.3,2.8-1.7s2.3-0.6,3.6-0.6s2.5,0.2,3.6,0.6c1.1,0.4,2,0.9,2.8,1.7
				c0.8,0.7,1.4,1.7,1.8,2.8c0.4,1.1,0.6,2.4,0.6,3.8v2.5h4.2v-8.6c0-1,0.3-1.8,1-2.4c0.6-0.5,1.4-0.8,2.2-0.8
				c0.4,0,0.8,0.1,1.2,0.2c0.4,0.1,0.7,0.3,1,0.6s0.5,0.6,0.7,1s0.3,0.9,0.3,1.4v27.6h-6.4C59.7,180.7,59.7,167.3,59.7,167.3z
				 M44,171.4c0,1.1,0.2,1.9,0.7,2.5c0.5,0.5,1.1,0.8,1.9,0.8c0.8,0,1.4-0.3,1.9-0.8s0.7-1.4,0.7-2.5v-12.3c0-1.1-0.2-1.9-0.7-2.5
				c-0.5-0.5-1.1-0.8-1.9-0.8c-0.8,0-1.4,0.3-1.9,0.8S44,158,44,159.1V171.4z"/>
			<path class="st0" d="M94.7,174.5c0.5,0,0.9,0.1,1.3,0.2c0.4,0.2,0.6,0.4,0.9,0.6c0.2,0.3,0.4,0.6,0.5,0.9c0.1,0.3,0.1,0.7,0.1,1
				s-0.1,0.7-0.2,1s-0.3,0.6-0.5,0.9c-0.2,0.3-0.5,0.5-0.9,0.6c-0.3,0.2-0.8,0.2-1.3,0.2H70.1c-0.5,0-0.9-0.1-1.3-0.2
				c-0.3-0.2-0.6-0.4-0.9-0.6c-0.2-0.3-0.4-0.6-0.5-0.9c-0.1-0.3-0.2-0.7-0.2-1s0-0.7,0.1-1s0.3-0.6,0.5-0.9s0.5-0.5,0.9-0.6
				c0.4-0.2,0.8-0.2,1.3-0.2H94.7z M85.7,153.8c0,1-0.2,2-0.5,3c1.3,0,2.7,0.3,4,0.8s2.5,1.3,3.6,2.3s2,2.3,2.7,3.8s1.2,3.3,1.3,5.4
				h-6.5c-0.1-1.1-0.4-2.1-0.9-3s-1-1.6-1.7-2.2c-0.7-0.6-1.4-1.1-2.3-1.4c-0.9-0.3-1.8-0.4-2.7-0.4c-0.7,1-1.6,2-2.5,2.8
				s-1.9,1.6-2.9,2.2c-1,0.6-2.1,1.1-3.1,1.4c-1.1,0.3-2.1,0.5-3.2,0.6c-0.8,0-1.5-0.2-2.1-0.6c-0.6-0.4-0.9-1.1-1-1.9
				c-0.1-0.8,0.1-1.5,0.5-2.1s1-1,1.8-1.1c1-0.2,2.1-0.6,3.1-1.2c1-0.6,1.9-1.3,2.7-2.1c0.8-0.9,1.5-1.9,2-3s0.9-2.4,1.1-3.8
				c0.1-1,0.5-1.8,1.2-2.3s1.5-0.7,2.4-0.6c0.9,0.1,1.7,0.4,2.2,1C85.4,152,85.7,152.8,85.7,153.8z"/>
			<path class="st0" d="M105.7,179.4c-1,0-1.9-0.1-2.6-0.3s-1.2-0.5-1.5-0.9c-0.4-0.4-0.6-1-0.7-1.7s-0.2-1.6-0.2-2.6v-17.6
				c0-1,0.1-1.9,0.2-2.6c0.1-0.7,0.4-1.3,0.7-1.7c0.4-0.4,0.9-0.7,1.5-0.9c0.7-0.2,1.5-0.3,2.6-0.3h7.5c1,0,1.9,0.1,2.6,0.3
				s1.2,0.5,1.5,0.9c0.4,0.4,0.6,1,0.7,1.7s0.2,1.6,0.2,2.6v23h-12.5V179.4z M106.9,173.1c0,0.4,0.1,0.7,0.2,0.8
				c0.1,0.2,0.4,0.3,0.9,0.3h3.9v-16.9c0-0.3-0.1-0.6-0.2-0.8s-0.3-0.3-0.7-0.3h-3.3c-0.4,0-0.6,0.1-0.7,0.3s-0.1,0.5-0.1,0.8
				C106.9,157.3,106.9,173.1,106.9,173.1z M121.7,153.1c0-1,0.3-1.8,1-2.4c0.6-0.5,1.4-0.8,2.2-0.8c0.4,0,0.8,0.1,1.2,0.2
				c0.4,0.1,0.7,0.3,1,0.6s0.5,0.6,0.7,1s0.3,0.9,0.3,1.4v8.3h1.1c0.5,0,0.9,0.1,1.2,0.3s0.6,0.4,0.8,0.7s0.3,0.6,0.4,0.9
				c0.1,0.3,0.1,0.7,0.1,1s0,0.7-0.1,1s-0.2,0.6-0.4,0.9c-0.2,0.3-0.5,0.5-0.8,0.7s-0.7,0.3-1.2,0.3H128v13.6h-6.4L121.7,153.1
				L121.7,153.1z"/>
			<path class="st0" d="M134.3,164.2c2.9,0.1,5-0.7,6.2-2.4c-0.6,0.2-1.3,0.4-1.9,0.4h-4.3c-0.4,0-0.8-0.1-1-0.2
				c-0.3-0.1-0.5-0.3-0.7-0.5s-0.3-0.5-0.4-0.7c-0.1-0.3-0.1-0.6-0.1-0.8c0-0.3,0-0.6,0.1-0.8c0.1-0.3,0.2-0.5,0.4-0.8
				c0.2-0.2,0.4-0.4,0.7-0.6c0.3-0.1,0.6-0.2,1-0.2h7.3v-1c0-0.4-0.2-0.6-0.6-0.6h-6.4c-0.4,0-0.8-0.1-1-0.2
				c-0.3-0.2-0.5-0.4-0.7-0.6c-0.2-0.3-0.3-0.5-0.4-0.8c-0.1-0.3-0.1-0.6-0.1-0.9c0-0.3,0-0.6,0.1-0.9c0.1-0.3,0.2-0.5,0.4-0.8
				c0.2-0.2,0.4-0.4,0.7-0.6c0.3-0.2,0.6-0.2,1-0.2h8.1c1.6,0,2.7,0.3,3.2,1c0.6,0.7,0.9,1.7,0.9,3v2.1h2v-4.3
				c0-0.9,0.3-1.6,0.8-2.1s1.2-0.7,1.9-0.7s1.4,0.2,1.9,0.7c0.6,0.5,0.8,1.2,0.8,2.1v15.5h-5.5v-6h-2.6c-0.4,1.2-0.9,2.2-1.7,3.1
				c-0.7,0.9-1.5,1.6-2.5,2.2c-0.9,0.6-2,1-3.1,1.3s-2.4,0.4-3.6,0.4c-0.2,0-0.4,0-0.5,0c-0.2,0-0.4,0-0.5-0.1
				c-0.7-0.1-1.3-0.4-1.7-0.8c-0.4-0.4-0.6-1-0.6-1.8c0-0.7,0.3-1.2,0.7-1.6C133,164.4,133.6,164.2,134.3,164.2z M150.8,171.8
				c1.2,0,2.5,0.1,3.8,0.4c1.3,0.3,2.4,0.8,3.5,1.5s2,1.6,2.7,2.8c0.7,1.1,1.2,2.5,1.5,4.2h-6.6c-0.2-0.7-0.5-1.3-1-1.9
				s-1-1-1.6-1.4s-1.4-0.6-2.2-0.8c-0.8-0.1-1.6-0.2-2.5,0c-0.8,0.8-1.7,1.4-2.8,2c-1,0.6-2.2,1.1-3.3,1.4c-1.2,0.4-2.3,0.6-3.5,0.8
				c-1.1,0.2-2.2,0.2-3.2,0.1c-0.8-0.1-1.4-0.4-1.9-0.9s-0.7-1.2-0.7-2.1c0-0.8,0.3-1.4,0.9-1.8c0.5-0.4,1.2-0.6,1.9-0.6
				s1.5,0,2.3-0.1s1.6-0.4,2.4-0.7c0.8-0.3,1.5-0.8,2.2-1.3c0.6-0.5,1.1-1.2,1.4-1.9c0.4-1,1-1.8,1.5-2.1c0.6-0.4,1.3-0.5,2.1-0.5
				s1.5,0.3,2.1,0.7C150.5,170,150.8,170.7,150.8,171.8L150.8,171.8z M155.7,152.7c0-0.9,0.3-1.6,0.8-2.1c0.6-0.5,1.2-0.7,2-0.7
				c0.7,0,1.4,0.2,2,0.7s0.9,1.2,0.9,2.1v16.6h-5.6L155.7,152.7L155.7,152.7z"/>
		</g>
	</g>
	<g>
		<g>
			<g>
				<path class="st0" d="M79.2,105v30h11.3c0.3,0.1,0.7,0.1,1.1,0.1c3.4,0,6.1-2.7,6.2-6.1h0v-24H79.2z"/>
				<path class="st0" d="M100.7,105.1v24.1h0c0.1,3,2.5,5.5,5.4,5.8v0.2h13.2v-0.1v-30H100.7z"/>
			</g>
			<path class="st0" d="M79,135.1c6.1,0,11.1-5,11.1-11.1s-5-11.1-11.1-11.1s-11.1,5-11.1,11.1S72.9,135.1,79,135.1"/>
			<path class="st0" d="M119.2,135.1c6.1,0,11.1-5,11.1-11.1s-5-11.1-11.1-11.1s-11.1,5-11.1,11.1
				C108.1,130.1,113.1,135.1,119.2,135.1"/>
			<g>
				<g>
					<defs>
						<path id="SVGID_1_" d="M79.2,105v30h12.1v-6h6.5v-24H79.2z M100.8,105v24.1h5.4v6h13.2v-30h-18.6V105z"/>
					</defs>
					<clipPath id="SVGID_00000067221823369596147780000001746582336749878915_">
						<use xlink:href="#SVGID_1_"  style="overflow:visible;"/>
					</clipPath>
					<g style="opacity:0.8;clip-path:url(#SVGID_00000067221823369596147780000001746582336749878915_);">
						<g>
							<g>
								<defs>
									<rect id="SVGID_00000119107727066306263350000006594650111409530769_" x="16.4" y="-9.5" width="167.8" height="138"/>
								</defs>
								<clipPath id="SVGID_00000052089875267058606750000014255010035462756759_">
									<use xlink:href="#SVGID_00000119107727066306263350000006594650111409530769_"  style="overflow:visible;"/>
								</clipPath>
								<g style="clip-path:url(#SVGID_00000052089875267058606750000014255010035462756759_);filter:url(#f1);">
									<path class="st3" d="M100.3,110.3c23,0,41.6-18.6,41.6-41.6s-18.6-41.6-41.6-41.6S58.8,45.7,58.8,68.7
										S77.4,110.3,100.3,110.3"/>
								</g>
							</g>
						</g>
					</g>
				</g>
			</g>
			<g>
				<path class="st0" d="M99.3,110.4c26,0,47.1-17.4,47.1-38.8s-21.1-38.8-47.1-38.8S52.2,50.2,52.2,71.6S73.3,110.4,99.3,110.4"/>
			</g>
			<g>
				<g class="st4">
					<g>
						<path class="st5" d="M99.3,32.8c-0.7,0-1.4,0.1-2.2,0.1c0.5,1.2,1.2,2.2,2,3.2c1.4,1.6,3.4,2.7,5.2,3.6c1.9,1,3.9,1.8,6,2.3
							c1.2,0.3,2.4,0.5,3.7,0.5c1,0.1,2.2-0.1,3.2,0.1c0.8,0.2,1.7,0.1,2.5,0c0.5,0,1-0.1,1.3,0.4s0.2,1.4,0.3,2
							c0.1,0.9,0.3,1.8,0.5,2.7c0.2,1,0.5,1.9,0.8,2.8c0.5,1.5,1.2,2.9,2,4.2c0.9,1.4,2,2.7,3.3,3.8c1.4,1.2,3.1,2.1,4.9,2.7
							c2.2,0.7,4.5,1,6.8,0.9c0.3,0,0.6-0.1,0.9,0c0,0,1.7,0.1,4-1.4C138.8,44.6,120.7,32.8,99.3,32.8"/>
					</g>
				</g>
				<g class="st4">
					<g>
						<path class="st5" d="M68.7,101.1c1.7,0.8,2.7,1.2,2.7,1.2c13.4-8.5,4.1-13.6,4.1-13.6c-1-0.9,0-1.7,0-1.7
							c11.3-3.4,9.3-12.8,9.3-12.8C82.8,61.5,67.3,64,67.3,64c-2.1,0-2.1-0.9-2.1-0.9c-1.4-6.6-3.9-10-6.2-11.7
							c-4.4,5.9-6.9,12.8-6.9,20.2C52.2,83.4,58.6,94,68.7,101.1"/>
					</g>
				</g>
				<g class="st4">
					<g>
						<path class="st5" d="M130.9,84.9c-0.5,0.8-1.3,1.5-2.3,0.9c-2-1.1-4.4-1.3-6.8-1.2c-2.5,0.1-5.2,0.2-7.5,1.2
							c-0.9,0.4-1.6,1-2.2,1.6c-2.4,2.5-3.2,6.3-2,9.3c1.4,3.5,5,5.2,9.2,5.8c1.2,0.2,2.4,0.3,3.7,0.2c0.8,0,1.5-0.2,2.2-0.4
							c0.3-0.1,0.5-0.1,0.8-0.2c1-0.2,1.2,0.1,1.3,0.6c9.2-5.6,15.8-14,18.1-23.6C135.2,77.7,130.9,84.9,130.9,84.9"/>
					</g>
				</g>
				<path class="st6" d="M111.3,30.3c0.1-0.7,0.2-1.4,0.2-2.1c0-6.8-5.5-12.3-12.3-12.3C92.5,16,87,21.5,87,28.2
					c0,0.7,0.1,1.4,0.2,2.1c-6.5,1-10.9,2.9-10.9,5c0,3.2,10.3,5.8,23,5.8s23-2.6,23-5.8C122.2,33.2,117.9,31.3,111.3,30.3"/>
				<path class="st7" d="M97.8,23.9c-2.3-0.3-4.7,0.3-6.5,2.1c-0.9,0.9-1.5,1.9-1.8,3c-0.3-1.1-0.9-2.1-1.8-3
					c-1.8-1.8-4.2-2.4-6.5-2.1c-0.3,2.3,0.3,4.7,2.1,6.5c1.7,1.7,4,2.3,6.2,2.1c2.2,0.2,4.5-0.4,6.2-2.1
					C97.4,28.6,98.1,26.2,97.8,23.9z"/>
			</g>
		</g>
		<g>
			<path class="st5" d="M105,66.8c-1.2,0-2.2,1-2.2,2.2c0,0.2-0.1,4.9-3.6,4.9s-3.6-4.4-3.6-4.9c0-1.2-1-2.2-2.2-2.2
				c-1.2,0-2.2,1-2.2,2.2c0,3.2,1.7,9.3,8.1,9.3c6.3,0,8-6.1,7.9-9.3C107.2,67.8,106.2,66.8,105,66.8z"/>
			<path class="st5" d="M93.3,62.6c1.2,0,2.2-1,2.2-2.2v-3.6c0-1.2-1-2.2-2.2-2.2c-1.2,0-2.2,1-2.2,2.2v3.6
				C91.1,61.6,92.1,62.6,93.3,62.6z"/>
			<path class="st5" d="M105.2,54.6c-1.2,0-2.2,1-2.2,2.2v3.6c0,1.2,1,2.2,2.2,2.2c1.3,0,2.3-1,2.2-2.2v-3.6
				C107.4,55.6,106.4,54.6,105.2,54.6z"/>
		</g>
	</g>
</g>
<g id="Layer_2_00000175310746128352526940000010504578202012033668_">
</g>
</svg>
