<?xml version="1.0" encoding="utf-8"?>
<!-- Generator: Adobe Illustrator 26.0.3, SVG Export Plug-In . SVG Version: 6.00 Build 0)  -->
<svg version="1.1" id="Layer_1" xmlns="http://www.w3.org/2000/svg" xmlns:xlink="http://www.w3.org/1999/xlink" x="0px" y="0px"
	 viewBox="0 0 158 164" style="enable-background:new 0 0 158 164;" xml:space="preserve">
<style type="text/css">
	.st0{fill:#DBDBDB;}
	.st1{fill:#FFFFFF;}
	.st2{opacity:0.3;}
</style>
<g>
	<path class="st0" d="M138.9,78c0-27.3-26.8-49.4-59.9-49.4S19.1,50.7,19.1,78c0,19.8,14.1,36.8,34.4,44.7v7.9c-0.1,0-0.1,0-0.2,0
		c-7.8,0-14.1,6.3-14.1,14.1c0,7.8,6.3,14.1,14.1,14.1c0.1,0,0.1,0,0.2,0v0h15.4v0c0.2,0,0.3,0,0.5,0c4.3,0,7.8-3.5,7.8-7.8
		c0-0.1,0-0.3,0-0.4v-23.2c0.6,0,1.3,0,1.9,0c0.6,0,1.3,0,1.9,0v23.3c0,0.1,0,0.2,0,0.4c0,4,3,7.3,6.9,7.8v0.1h16.8v0
		c7.7-0.1,13.9-6.4,13.9-14.1c0-7.7-6.2-14-13.9-14.1v-7.9C124.9,114.8,138.9,97.7,138.9,78z"/>
	<g>
		<path class="st1" d="M62.1,74.1c0-0.6-0.1-1.1-0.3-1.6c-0.2-0.4-0.5-0.8-0.8-1.1c-0.3-0.3-0.7-0.5-1.2-0.6
			c-0.4-0.1-0.9-0.2-1.3-0.2c-0.4,0-0.9,0.1-1.3,0.2c-0.4,0.1-0.8,0.4-1.2,0.6c-0.3,0.3-0.6,0.7-0.8,1.1c-0.2,0.4-0.3,1-0.3,1.6v9.1
			h-4.3c-0.5,0-0.9-0.1-1.1-0.2c-0.2-0.1-0.2-0.4-0.1-0.9l4.4-14.5c0.1-0.6,0.1-1.2,0-1.7c-0.1-0.5-0.3-1-0.6-1.3
			c-0.3-0.4-0.7-0.7-1.1-0.9c-0.4-0.2-0.9-0.4-1.5-0.4c-1-0.1-1.9,0.1-2.6,0.6c-0.8,0.5-1.3,1.4-1.6,2.6l-5,16.4
			c-0.6,2-0.4,3.7,0.5,4.9c0.9,1.2,2.6,1.8,5,1.8h8v5.4h7.3v-5.4h3.5v-6.4h-3.5V74.1z"/>
		<path class="st1" d="M86.8,66c-1-0.9-2.1-1.6-3.5-2c-1.3-0.4-2.8-0.7-4.3-0.7c-1.5,0-3,0.2-4.3,0.7c-1.3,0.4-2.5,1.1-3.5,2
			c-1,0.9-1.8,2-2.3,3.3c-0.6,1.3-0.8,2.8-0.8,4.5v11.5c0,1.7,0.3,3.2,0.8,4.6c0.6,1.3,1.3,2.4,2.3,3.3c1,0.9,2.1,1.5,3.5,2
			c1.3,0.4,2.8,0.7,4.3,0.7c1.5,0,3-0.2,4.3-0.7c1.3-0.4,2.5-1.1,3.5-2c1-0.9,1.8-2,2.3-3.3c0.6-1.3,0.8-2.8,0.8-4.6V73.8
			c0-1.7-0.3-3.2-0.8-4.5C88.6,68,87.8,66.9,86.8,66z M82.1,85.8c0,0.6-0.1,1.2-0.3,1.6c-0.2,0.4-0.4,0.8-0.7,1
			c-0.3,0.3-0.6,0.4-1,0.5c-0.4,0.1-0.7,0.2-1.1,0.2c-0.3,0-0.7-0.1-1.1-0.2c-0.4-0.1-0.7-0.3-1-0.5s-0.5-0.6-0.7-1
			c-0.2-0.4-0.3-0.9-0.3-1.6V73.3c0-0.6,0.1-1.1,0.3-1.5c0.2-0.4,0.4-0.8,0.7-1c0.3-0.3,0.6-0.5,1-0.6C78.3,70,78.7,70,79,70
			c0.3,0,0.7,0.1,1.1,0.2c0.4,0.1,0.7,0.3,1,0.6c0.3,0.3,0.5,0.6,0.7,1c0.2,0.4,0.3,0.9,0.3,1.5V85.8z"/>
		<path class="st1" d="M113.4,83.2v-9.1c0-0.6-0.1-1.1-0.3-1.6c-0.2-0.4-0.5-0.8-0.8-1.1c-0.3-0.3-0.7-0.5-1.2-0.6
			c-0.4-0.1-0.9-0.2-1.3-0.2c-0.4,0-0.9,0.1-1.3,0.2c-0.4,0.1-0.8,0.4-1.2,0.6c-0.3,0.3-0.6,0.7-0.8,1.1c-0.2,0.4-0.3,1-0.3,1.6v9.1
			h-4.3c-0.5,0-0.9-0.1-1.1-0.2c-0.2-0.1-0.2-0.4-0.1-0.9l4.4-14.5c0.1-0.6,0.1-1.2,0-1.7c-0.1-0.5-0.3-1-0.6-1.3
			c-0.3-0.4-0.7-0.7-1.1-0.9c-0.4-0.2-0.9-0.4-1.5-0.4c-1-0.1-1.9,0.1-2.6,0.6c-0.8,0.5-1.3,1.4-1.6,2.6l-5,16.4
			c-0.6,2-0.4,3.7,0.5,4.9c0.9,1.2,2.6,1.8,5,1.8h8v5.4h7.3v-5.4h3.5v-6.4H113.4z"/>
	</g>
	<g>
		<path class="st1" d="M46.9,53.6c-0.1,0-0.2,0-0.3,0c-0.9-0.1-1.7-0.6-2.3-1.4c-1-1.5-1.2-4-0.8-5.5c0.1-0.5,0.7-0.8,1.2-0.7
			c0.5,0.1,0.8,0.7,0.7,1.2c-0.3,0.9-0.2,2.8,0.5,3.8c0.3,0.5,0.6,0.6,0.8,0.6c0.3,0,0.5,0,0.7-0.2c0.8-0.8,1.1-3.1,1.1-4.4
			c0-0.5,0.4-1,0.9-1c0.5,0,1,0.4,1,0.9c0,0.2,0.2,4.2-1.7,5.9C48.3,53.4,47.7,53.6,46.9,53.6z"/>
	</g>
	<g>
		<path class="st1" d="M35.5,63.8c-0.1,0-0.2,0-0.3,0c-0.9-0.1-1.7-0.6-2.3-1.4c-1-1.5-1.2-4-0.8-5.5c0.1-0.5,0.7-0.8,1.2-0.7
			c0.5,0.1,0.8,0.7,0.7,1.2c-0.3,0.9-0.2,2.8,0.5,3.8c0.3,0.5,0.6,0.6,0.8,0.6c0.3,0,0.5,0,0.7-0.2c0.8-0.8,1.1-3.1,1.1-4.4
			c0-0.5,0.4-1,0.9-1c0.6,0,1,0.4,1,0.9c0,0.2,0.2,4.2-1.7,5.9C36.9,63.6,36.2,63.8,35.5,63.8z"/>
	</g>
	<g>
		<g class="st2">
			<g>
				<path class="st1" d="M79,27c-0.9,0-1.8,0.1-2.8,0.1c0.7,1.5,1.5,2.9,2.6,4.1c1.8,2,4.3,3.5,6.7,4.7c2.4,1.3,5,2.3,7.6,3
					c1.5,0.4,3.1,0.6,4.7,0.7c1.3,0.1,2.8-0.1,4.1,0.2c1,0.3,2.1,0.1,3.2,0c0.6,0,1.3-0.1,1.7,0.5c0.4,0.7,0.2,1.8,0.3,2.6
					c0.1,1.2,0.3,2.3,0.6,3.4c0.3,1.3,0.6,2.5,1,3.7c0.7,1.9,1.5,3.7,2.5,5.4c1.1,1.8,2.5,3.5,4.2,4.9c1.8,1.6,4,2.8,6.2,3.5
					c2.8,1,5.8,1.3,8.7,1.2c0.4,0,0.8-0.1,1.2-0.1c0,0,2.2,0.1,5.1-1.8C129.3,42.3,106.3,27,79,27"/>
			</g>
		</g>
		<g class="st2">
			<g>
				<path class="st1" d="M40.1,115.5c2.1,1,3.4,1.5,3.4,1.5c17.1-11,5.3-17.6,5.3-17.6c-1.3-1.1,0-2.2,0-2.2
					c14.4-4.4,11.8-16.5,11.8-16.5C58,64.1,38.3,67.5,38.3,67.5c-2.6,0-2.6-1.1-2.6-1.1c-1.8-8.5-4.9-12.9-7.8-15.2
					c-5.5,7.6-8.8,16.6-8.8,26.1C19.1,92.6,27.3,106.3,40.1,115.5"/>
			</g>
		</g>
		<g class="st2">
			<g>
				<path class="st1" d="M119.2,94.5c-0.6,1-1.6,1.9-2.9,1.2c-2.5-1.5-5.7-1.7-8.7-1.6c-3.2,0.1-6.7,0.2-9.5,1.6
					c-1.1,0.5-2,1.2-2.8,2.1c-3.1,3.2-4,8.2-2.5,12.1c1.7,4.6,6.4,6.7,11.7,7.5c1.5,0.2,3.1,0.4,4.7,0.3c1.1,0,1.9-0.3,2.8-0.5
					c0.3-0.1,0.7-0.2,1-0.3c1.2-0.3,1.5,0.2,1.6,0.7c11.7-7.3,20.2-18.1,23.1-30.6C124.8,85.2,119.2,94.5,119.2,94.5"/>
			</g>
		</g>
	</g>
	<g>
		<path class="st0" d="M94.3,23.8c0.1-0.9,0.3-1.8,0.3-2.7c0-8.8-7-15.9-15.6-15.9c-7.5,0-13.8,5.4-15.3,12.7
			c0.1,0.1,0.3,0.3,0.4,0.4c1.1,1.1,1.9,2.5,2.3,3.9c0.4-1.4,1.2-2.8,2.3-3.9c2.3-2.3,5.3-3.1,8.3-2.8c0.4,3-0.4,6.1-2.7,8.5
			c-2.2,2.2-5.1,3-7.9,2.8c-2.5,0.2-5.1-0.4-7.2-2.1c-5.9,1.4-9.6,3.4-9.6,5.6c0,4.2,13.1,7.6,29.3,7.6s29.3-3.4,29.3-7.6
			C108.3,27.5,102.7,25.1,94.3,23.8z"/>
	</g>
</g>
</svg>
