<?xml version="1.0" encoding="utf-8"?>
<!-- Generator: Adobe Illustrator 26.0.3, SVG Export Plug-In . SVG Version: 6.00 Build 0)  -->
<svg version="1.1" id="Layer_1" xmlns="http://www.w3.org/2000/svg" xmlns:xlink="http://www.w3.org/1999/xlink" x="0px" y="0px"
	 viewBox="0 0 200 200" style="enable-background:new 0 0 200 200;" xml:space="preserve">
<style type="text/css">
	.st0{fill:none;}
	.st1{fill:#FFFFFF;}
	.st2{opacity:0.8;clip-path:url(#SVGID_00000140000204330096295410000006318875188448781222_);}
	.st3{opacity:0.8;}
	.st4{filter:url(#Adobe_OpacityMaskFilter);}
	.st5{clip-path:url(#SVGID_00000174560526316812276900000012832616680975201940_);}
	
		.st6{clip-path:url(#SVGID_00000174560526316812276900000012832616680975201940_);mask:url(#SVGID_00000123437632422276266960000003488503355248122516_);}
	.st7{opacity:0.3;clip-path:url(#SVGID_00000142163315125145564480000009807690732731832763_);fill:#3F85EB;}
	.st8{opacity:0.4;}
	.st9{fill:#3F97FB;}
	.st10{fill:#F8B62D;}
	.st11{fill:#46C864;}
</style>
<g id="Layer_1_00000087407212717617208080000015286300958041570211_">
	<g>
		<g>
			<path class="st0" d="M59.7,167.3h-4.2v3.9c0,1.4-0.2,2.7-0.6,3.8c-0.4,1.1-1,2-1.8,2.8c-0.8,0.7-1.7,1.3-2.8,1.7
				s-2.3,0.6-3.6,0.6s-2.5-0.2-3.6-0.6c-1.1-0.4-2-0.9-2.8-1.7c-0.8-0.7-1.4-1.7-1.8-2.8c-0.4-1.1-0.6-2.4-0.6-3.8v-12
				c0-1.4,0.2-2.7,0.6-3.8c0.4-1.1,1-2,1.8-2.8c0.8-0.7,1.7-1.3,2.8-1.7s2.3-0.6,3.6-0.6s2.5,0.2,3.6,0.6c1.1,0.4,2,0.9,2.8,1.7
				c0.8,0.7,1.4,1.7,1.8,2.8c0.4,1.1,0.6,2.4,0.6,3.8v2.5h4.2v-8.6c0-1,0.3-1.8,1-2.4c0.6-0.5,1.4-0.8,2.2-0.8
				c0.4,0,0.8,0.1,1.2,0.2c0.4,0.1,0.7,0.3,1,0.6s0.5,0.6,0.7,1s0.3,0.9,0.3,1.4v27.6h-6.4C59.7,180.7,59.7,167.3,59.7,167.3z
				 M44,171.4c0,1.1,0.2,1.9,0.7,2.5c0.5,0.5,1.1,0.8,1.9,0.8c0.8,0,1.4-0.3,1.9-0.8s0.7-1.4,0.7-2.5v-12.3c0-1.1-0.2-1.9-0.7-2.5
				c-0.5-0.5-1.1-0.8-1.9-0.8c-0.8,0-1.4,0.3-1.9,0.8S44,158,44,159.1V171.4z"/>
			<path class="st0" d="M94.7,174.5c0.5,0,0.9,0.1,1.3,0.2c0.4,0.2,0.6,0.4,0.9,0.6c0.2,0.3,0.4,0.6,0.5,0.9c0.1,0.3,0.1,0.7,0.1,1
				s-0.1,0.7-0.2,1s-0.3,0.6-0.5,0.9c-0.2,0.3-0.5,0.5-0.9,0.6c-0.3,0.2-0.8,0.2-1.3,0.2H70.1c-0.5,0-0.9-0.1-1.3-0.2
				c-0.3-0.2-0.6-0.4-0.9-0.6c-0.2-0.3-0.4-0.6-0.5-0.9c-0.1-0.3-0.2-0.7-0.2-1s0-0.7,0.1-1s0.3-0.6,0.5-0.9s0.5-0.5,0.9-0.6
				c0.4-0.2,0.8-0.2,1.3-0.2H94.7z M85.7,153.8c0,1-0.2,2-0.5,3c1.3,0,2.7,0.3,4,0.8s2.5,1.3,3.6,2.3s2,2.3,2.7,3.8s1.2,3.3,1.3,5.4
				h-6.5c-0.1-1.1-0.4-2.1-0.9-3s-1-1.6-1.7-2.2c-0.7-0.6-1.4-1.1-2.3-1.4c-0.9-0.3-1.8-0.4-2.7-0.4c-0.7,1-1.6,2-2.5,2.8
				s-1.9,1.6-2.9,2.2c-1,0.6-2.1,1.1-3.1,1.4c-1.1,0.3-2.1,0.5-3.2,0.6c-0.8,0-1.5-0.2-2.1-0.6c-0.6-0.4-0.9-1.1-1-1.9
				c-0.1-0.8,0.1-1.5,0.5-2.1s1-1,1.8-1.1c1-0.2,2.1-0.6,3.1-1.2c1-0.6,1.9-1.3,2.7-2.1c0.8-0.9,1.5-1.9,2-3s0.9-2.4,1.1-3.8
				c0.1-1,0.5-1.8,1.2-2.3s1.5-0.7,2.4-0.6c0.9,0.1,1.7,0.4,2.2,1C85.4,152,85.7,152.8,85.7,153.8z"/>
			<path class="st0" d="M105.7,179.4c-1,0-1.9-0.1-2.6-0.3s-1.2-0.5-1.5-0.9c-0.4-0.4-0.6-1-0.7-1.7s-0.2-1.6-0.2-2.6v-17.6
				c0-1,0.1-1.9,0.2-2.6c0.1-0.7,0.4-1.3,0.7-1.7c0.4-0.4,0.9-0.7,1.5-0.9c0.7-0.2,1.5-0.3,2.6-0.3h7.5c1,0,1.9,0.1,2.6,0.3
				s1.2,0.5,1.5,0.9c0.4,0.4,0.6,1,0.7,1.7s0.2,1.6,0.2,2.6v23h-12.5V179.4z M106.9,173.1c0,0.4,0.1,0.7,0.2,0.8
				c0.1,0.2,0.4,0.3,0.9,0.3h3.9v-16.9c0-0.3-0.1-0.6-0.2-0.8s-0.3-0.3-0.7-0.3h-3.3c-0.4,0-0.6,0.1-0.7,0.3s-0.1,0.5-0.1,0.8
				C106.9,157.3,106.9,173.1,106.9,173.1z M121.7,153.1c0-1,0.3-1.8,1-2.4c0.6-0.5,1.4-0.8,2.2-0.8c0.4,0,0.8,0.1,1.2,0.2
				c0.4,0.1,0.7,0.3,1,0.6s0.5,0.6,0.7,1s0.3,0.9,0.3,1.4v8.3h1.1c0.5,0,0.9,0.1,1.2,0.3s0.6,0.4,0.8,0.7s0.3,0.6,0.4,0.9
				c0.1,0.3,0.1,0.7,0.1,1s0,0.7-0.1,1s-0.2,0.6-0.4,0.9c-0.2,0.3-0.5,0.5-0.8,0.7s-0.7,0.3-1.2,0.3H128v13.6h-6.4L121.7,153.1
				L121.7,153.1z"/>
			<path class="st0" d="M134.3,164.2c2.9,0.1,5-0.7,6.2-2.4c-0.6,0.2-1.3,0.4-1.9,0.4h-4.3c-0.4,0-0.8-0.1-1-0.2
				c-0.3-0.1-0.5-0.3-0.7-0.5s-0.3-0.5-0.4-0.7c-0.1-0.3-0.1-0.6-0.1-0.8c0-0.3,0-0.6,0.1-0.8c0.1-0.3,0.2-0.5,0.4-0.8
				c0.2-0.2,0.4-0.4,0.7-0.6c0.3-0.1,0.6-0.2,1-0.2h7.3v-1c0-0.4-0.2-0.6-0.6-0.6h-6.4c-0.4,0-0.8-0.1-1-0.2
				c-0.3-0.2-0.5-0.4-0.7-0.6c-0.2-0.3-0.3-0.5-0.4-0.8c-0.1-0.3-0.1-0.6-0.1-0.9c0-0.3,0-0.6,0.1-0.9c0.1-0.3,0.2-0.5,0.4-0.8
				c0.2-0.2,0.4-0.4,0.7-0.6c0.3-0.2,0.6-0.2,1-0.2h8.1c1.6,0,2.7,0.3,3.2,1c0.6,0.7,0.9,1.7,0.9,3v2.1h2v-4.3
				c0-0.9,0.3-1.6,0.8-2.1s1.2-0.7,1.9-0.7s1.4,0.2,1.9,0.7c0.6,0.5,0.8,1.2,0.8,2.1v15.5h-5.5v-6h-2.6c-0.4,1.2-0.9,2.2-1.7,3.1
				c-0.7,0.9-1.5,1.6-2.5,2.2c-0.9,0.6-2,1-3.1,1.3s-2.4,0.4-3.6,0.4c-0.2,0-0.4,0-0.5,0c-0.2,0-0.4,0-0.5-0.1
				c-0.7-0.1-1.3-0.4-1.7-0.8c-0.4-0.4-0.6-1-0.6-1.8c0-0.7,0.3-1.2,0.7-1.6C133,164.4,133.6,164.2,134.3,164.2z M150.8,171.8
				c1.2,0,2.5,0.1,3.8,0.4c1.3,0.3,2.4,0.8,3.5,1.5s2,1.6,2.7,2.8c0.7,1.1,1.2,2.5,1.5,4.2h-6.6c-0.2-0.7-0.5-1.3-1-1.9
				s-1-1-1.6-1.4s-1.4-0.6-2.2-0.8c-0.8-0.1-1.6-0.2-2.5,0c-0.8,0.8-1.7,1.4-2.8,2c-1,0.6-2.2,1.1-3.3,1.4c-1.2,0.4-2.3,0.6-3.5,0.8
				c-1.1,0.2-2.2,0.2-3.2,0.1c-0.8-0.1-1.4-0.4-1.9-0.9s-0.7-1.2-0.7-2.1c0-0.8,0.3-1.4,0.9-1.8c0.5-0.4,1.2-0.6,1.9-0.6
				s1.5,0,2.3-0.1s1.6-0.4,2.4-0.7c0.8-0.3,1.5-0.8,2.2-1.3c0.6-0.5,1.1-1.2,1.4-1.9c0.4-1,1-1.8,1.5-2.1c0.6-0.4,1.3-0.5,2.1-0.5
				s1.5,0.3,2.1,0.7C150.5,170,150.8,170.7,150.8,171.8L150.8,171.8z M155.7,152.7c0-0.9,0.3-1.6,0.8-2.1c0.6-0.5,1.2-0.7,2-0.7
				c0.7,0,1.4,0.2,2,0.7s0.9,1.2,0.9,2.1v16.6h-5.6L155.7,152.7L155.7,152.7z"/>
		</g>
	</g>
	<g>
		<g>
			<path class="st1" d="M97.8,129.2v-24.1H79.1v30.1h12.1v-6H97.8z M119.4,135.2v-30.1h-18.6v24.1h5.4v6H119.4z"/>
			<g>
				<defs>
					<path id="SVGID_1_" d="M79.1,105.1v30.1h12.1v-6h6.5v-24.1H79.1z M100.7,105.1v24.1h5.4v6h13.2v-30.1H100.7z"/>
				</defs>
				<clipPath id="SVGID_00000141424013424875778250000012221345317906121370_">
					<use xlink:href="#SVGID_1_"  style="overflow:visible;"/>
				</clipPath>
				<g style="opacity:0.8;clip-path:url(#SVGID_00000141424013424875778250000012221345317906121370_);">
					<g class="st3">
						<defs>
							
								<rect id="SVGID_00000142178363712409462750000016090414976798636968_" x="15.3" y="-11.6" class="st3" width="168.1" height="138.3"/>
						</defs>
						<clipPath id="SVGID_00000110466436097638346590000004586157437946099587_">
							<use xlink:href="#SVGID_00000142178363712409462750000016090414976798636968_"  style="overflow:visible;"/>
						</clipPath>
						<defs>
							<filter id="Adobe_OpacityMaskFilter" filterUnits="userSpaceOnUse" x="44.7" y="12.1" width="110.2" height="108.8">
								<feColorMatrix  type="matrix" values="1 0 0 0 0  0 1 0 0 0  0 0 1 0 0  0 0 0 1 0"/>
							</filter>
						</defs>
						
							<mask maskUnits="userSpaceOnUse" x="44.7" y="12.1" width="110.2" height="108.8" id="SVGID_00000176757372247017947480000011247598014293392819_">
							<g class="st4">
								<g>
									<defs>
										<rect id="SVGID_00000113318423143829562900000000312328304038748321_" x="16.1" y="-10.8" width="166.1" height="140.3"/>
									</defs>
									
										<clipPath id="SVGID_00000024001426491454426380000016455990035460515737_" style="clip-path:url(#SVGID_00000110466436097638346590000004586157437946099587_);">
										<use xlink:href="#SVGID_00000113318423143829562900000000312328304038748321_"  style="overflow:visible;"/>
									</clipPath>
									<g style="clip-path:url(#SVGID_00000024001426491454426380000016455990035460515737_);">
										
											<image style="overflow:visible;" width="116" height="98" xlink:href="EBB2C06B1E7C36D1.jpg"  transform="matrix(1.4316 0 0 1.4316 16.0639 -10.7899)">
										</image>
									</g>
								</g>
							</g>
						</mask>
						
							<g style="clip-path:url(#SVGID_00000110466436097638346590000004586157437946099587_);mask:url(#SVGID_00000176757372247017947480000011247598014293392819_);">
							<g>
								<defs>
									<rect id="SVGID_00000046303435164939682330000014781773658394639005_" x="44.7" y="12.1" width="110.2" height="108.8"/>
								</defs>
								<clipPath id="SVGID_00000129196170526541817280000015747039700150478729_">
									<use xlink:href="#SVGID_00000046303435164939682330000014781773658394639005_"  style="overflow:visible;"/>
								</clipPath>
								
									<rect x="44.7" y="12.1" style="opacity:0.3;clip-path:url(#SVGID_00000129196170526541817280000015747039700150478729_);fill:#3F85EB;" width="110.2" height="108.8"/>
							</g>
						</g>
					</g>
				</g>
			</g>
			<g>
				<path class="st1" d="M79,135.2c6.1,0,11.1-5,11.1-11.1c0-6.1-5-11.1-11.1-11.1c-6.1,0-11.1,5-11.1,11.1
					C67.9,130.2,72.8,135.2,79,135.2"/>
				<path class="st1" d="M119.2,135.2c6.1,0,11.1-5,11.1-11.1c0-6.1-5-11.1-11.1-11.1c-6.1,0-11.1,5-11.1,11.1
					C108.1,130.2,113.1,135.2,119.2,135.2"/>
				<path class="st1" d="M99.2,110.5c26,0,47.1-17.4,47.1-38.9c0-21.5-21.1-38.9-47.1-38.9S52.1,50.1,52.1,71.6
					C52.1,93.1,73.2,110.5,99.2,110.5"/>
			</g>
			<g>
				<g class="st8">
					<g>
						<path class="st9" d="M99.3,32.7c-0.7,0-1.4,0.1-2.2,0.1c0.5,1.2,1.2,2.2,2,3.2c1.4,1.6,3.4,2.7,5.2,3.6c1.9,1,3.9,1.8,6,2.3
							c1.2,0.3,2.4,0.5,3.7,0.5c1,0.1,2.2-0.1,3.2,0.1c0.8,0.2,1.7,0.1,2.5,0c0.5,0,1-0.1,1.3,0.4c0.3,0.5,0.2,1.4,0.3,2
							c0.1,0.9,0.3,1.8,0.5,2.7c0.2,1,0.5,1.9,0.8,2.9c0.5,1.5,1.2,2.9,2,4.2c0.9,1.4,2,2.7,3.3,3.8c1.4,1.2,3.1,2.1,4.9,2.7
							c2.2,0.7,4.5,1,6.8,0.9c0.3,0,0.6-0.1,0.9,0c0,0,1.7,0.1,4-1.4C138.8,44.6,120.7,32.7,99.3,32.7"/>
					</g>
				</g>
				<g class="st8">
					<g>
						<path class="st9" d="M68.7,101.2c1.7,0.8,2.7,1.2,2.7,1.2c13.4-8.5,4.1-13.6,4.1-13.6c-1-0.9,0-1.7,0-1.7
							c11.4-3.4,9.3-12.8,9.3-12.8C82.8,61.5,67.3,64,67.3,64c-2.1,0-2.1-0.9-2.1-0.9c-1.4-6.6-3.9-10-6.2-11.8
							c-4.4,5.9-6.9,12.8-6.9,20.2C52.1,83.5,58.6,94.1,68.7,101.2"/>
					</g>
				</g>
				<g class="st8">
					<g>
						<path class="st9" d="M130.9,84.9c-0.5,0.8-1.3,1.5-2.3,0.9c-2-1.1-4.5-1.3-6.8-1.2c-2.5,0.1-5.3,0.2-7.5,1.2
							c-0.9,0.4-1.6,1-2.2,1.6c-2.4,2.5-3.2,6.3-2,9.4c1.4,3.5,5,5.2,9.2,5.8c1.2,0.2,2.4,0.3,3.7,0.2c0.8,0,1.5-0.2,2.2-0.4
							c0.3-0.1,0.5-0.1,0.8-0.2c1-0.2,1.2,0.1,1.3,0.6c9.2-5.7,15.9-14,18.2-23.6C135.3,77.8,130.9,84.9,130.9,84.9"/>
					</g>
				</g>
				<path class="st10" d="M111.3,30.3c0.1-0.7,0.2-1.4,0.2-2.1c0-6.8-5.5-12.3-12.3-12.3c-6.8,0-12.3,5.5-12.3,12.3
					c0,0.7,0.1,1.4,0.2,2.1c-6.6,1-10.9,2.9-10.9,5c0,3.2,10.3,5.8,23,5.8s23-2.6,23-5.8C122.3,33.1,117.9,31.3,111.3,30.3"/>
				<path class="st11" d="M97.8,23.9c-2.3-0.3-4.7,0.3-6.5,2.1c-0.9,0.9-1.5,1.9-1.8,3c-0.3-1.1-0.9-2.1-1.8-3
					c-1.8-1.8-4.2-2.4-6.5-2.1c-0.3,2.3,0.3,4.7,2.1,6.5c1.7,1.7,4,2.3,6.2,2.1c2.2,0.2,4.5-0.4,6.2-2.1
					C97.4,28.6,98,26.2,97.8,23.9z"/>
			</g>
		</g>
		<g>
			<path class="st9" d="M99.2,78.3c-6.4,0-8.1-6.1-8.1-9.4c0-1.2,1-2.2,2.2-2.2s2.2,1,2.2,2.2c0,0.5,0.1,4.9,3.6,4.9
				c3.6,0,3.6-4.7,3.6-4.9c0-1.2,1-2.2,2.2-2.2c1.2,0,2.2,1,2.2,2.2C107.3,72.2,105.6,78.3,99.2,78.3z"/>
		</g>
		<g>
			<path class="st9" d="M93.3,62.6c-1.2,0-2.2-1-2.2-2.2v-3.6c0-1.2,1-2.2,2.2-2.2c1.2,0,2.2,1,2.2,2.2v3.6
				C95.5,61.6,94.5,62.6,93.3,62.6z"/>
		</g>
		<g>
			<path class="st9" d="M105.2,62.6c-1.2,0-2.2-1-2.2-2.2v-3.6c0-1.2,1-2.2,2.2-2.2s2.2,1,2.2,2.2v3.6
				C107.5,61.6,106.5,62.6,105.2,62.6z"/>
		</g>
		<path class="st1" d="M106.9,135.2c3.4,0,6.2-2.8,6.2-6.2c0-3.4-2.8-6.2-6.2-6.2c-3.4,0-6.2,2.8-6.2,6.2
			C100.7,132.4,103.5,135.2,106.9,135.2"/>
		<path class="st1" d="M91.6,135.2c3.4,0,6.2-2.8,6.2-6.2c0-3.4-2.8-6.2-6.2-6.2c-3.4,0-6.2,2.8-6.2,6.2
			C85.4,132.4,88.2,135.2,91.6,135.2"/>
	</g>
</g>
<g id="Layer_2_00000090282388472438811690000014573457270262141089_">
</g>
</svg>
