<svg id="Layer_1" data-name="Layer 1" xmlns="http://www.w3.org/2000/svg" viewBox="0 0 79.03 100"><defs><style>.cls-1{fill:#dbdbdb;}.cls-2{opacity:0.3;}.cls-3{fill:#fff;}</style></defs><path class="cls-1" d="M439.52,402.85c0-18-17.69-32.59-39.51-32.59s-39.52,14.59-39.52,32.59c0,13,9.27,24.26,22.66,29.48v5.21H383a9.31,9.31,0,0,0,0,18.62h10.26v0a3.31,3.31,0,0,0,.33,0,5.16,5.16,0,0,0,5.15-5h0v0c0-.05,0-.09,0-.13s0-.09,0-.13V435.41c.41,0,.83,0,1.25,0s.83,0,1.25,0v15.45s0,.08,0,.12,0,.07,0,.11v.06h0a5.16,5.16,0,0,0,4.51,4.93v.07h11.09a9.3,9.3,0,0,0,0-18.6v-5.21C430.25,427.11,439.52,415.87,439.52,402.85Z" transform="translate(-360.49 -356.15)"/><g class="cls-2"><path class="cls-3" d="M400,370.26c-.62,0-1.22.05-1.82.07a9.87,9.87,0,0,0,1.69,2.68,15.27,15.27,0,0,0,4.39,3.06,21.48,21.48,0,0,0,5,1.91,17.76,17.76,0,0,0,3.07.45,15.45,15.45,0,0,1,2.72.12,7,7,0,0,0,2.09,0c.38,0,.87-.05,1.09.34a4.77,4.77,0,0,1,.22,1.65,21.23,21.23,0,0,0,.39,2.23,19.78,19.78,0,0,0,.69,2.39,17.44,17.44,0,0,0,1.66,3.49,13.7,13.7,0,0,0,2.74,3.19,12.71,12.71,0,0,0,4.11,2.3,16.77,16.77,0,0,0,5.72.78,6.87,6.87,0,0,1,.78,0,6.41,6.41,0,0,0,3.36-1.14c-4.77-13.57-19.93-23.5-37.92-23.5" transform="translate(-360.49 -356.15)"/></g><g class="cls-2"><path class="cls-3" d="M374.39,427.63c1.39.65,2.27,1,2.27,1,11.25-7.14,3.46-11.42,3.46-11.42a.88.88,0,0,1,0-1.43c9.52-2.85,7.79-10.71,7.79-10.71-1.73-10.71-14.72-8.56-14.72-8.56-1.73,0-1.73-.72-1.73-.72-1.18-5.53-3.26-8.37-5.17-9.85a28.28,28.28,0,0,0-5.8,16.93c0,9.93,5.4,18.81,13.9,24.78" transform="translate(-360.49 -356.15)"/></g><g class="cls-2"><path class="cls-3" d="M426.53,414c-.41.68-1.06,1.25-1.92.75a10.6,10.6,0,0,0-5.71-1,16.32,16.32,0,0,0-6.28,1,6.2,6.2,0,0,0-1.86,1.34,7.62,7.62,0,0,0-1.67,7.84c1.15,2.95,4.22,4.35,7.73,4.87a16.61,16.61,0,0,0,3.07.19,8.18,8.18,0,0,0,1.87-.34l.69-.16c.8-.17,1,.1,1.08.48,7.73-4.74,13.3-11.72,15.23-19.81C430.18,408,426.53,414,426.53,414" transform="translate(-360.49 -356.15)"/></g><path class="cls-3" d="M400,408.46c-5.35,0-6.76-5.13-6.76-7.85a1.88,1.88,0,0,1,3.75,0c0,.41.12,4.1,3,4.1s3-3.93,3-4.1a1.88,1.88,0,0,1,3.75,0C406.77,403.33,405.35,408.46,400,408.46Z" transform="translate(-360.49 -356.15)"/><path class="cls-3" d="M395,395.26a1.88,1.88,0,0,1-1.88-1.88v-3.05a1.88,1.88,0,0,1,3.75,0v3.05A1.88,1.88,0,0,1,395,395.26Z" transform="translate(-360.49 -356.15)"/><path class="cls-3" d="M405,395.26a1.88,1.88,0,0,1-1.88-1.88v-3.05a1.88,1.88,0,0,1,3.75,0v3.05A1.88,1.88,0,0,1,405,395.26Z" transform="translate(-360.49 -356.15)"/><path class="cls-1" d="M410.12,368.19a10.28,10.28,0,0,0-20.19-3.85,3.58,3.58,0,0,1,.29.26,6.18,6.18,0,0,1,1.53,2.53,6.18,6.18,0,0,1,1.53-2.53,6.49,6.49,0,0,1,5.47-1.79A7.43,7.43,0,0,1,387,368.73c-3.87.9-6.31,2.18-6.31,3.61,0,2.7,8.63,4.89,19.29,4.89s19.28-2.19,19.28-4.89C419.29,370.59,415.62,369.05,410.12,368.19Z" transform="translate(-360.49 -356.15)"/></svg>