<svg id="Layer_1" data-name="Layer 1" xmlns="http://www.w3.org/2000/svg" viewBox="0 0 322 204"><defs><style>.cls-1{fill:#f2f2f2;}.cls-2{fill:#dbdbdb;}</style></defs><rect class="cls-1" width="322" height="204" rx="10"/><path class="cls-2" d="M395.89,430.11c-16.06,0-20.3-15.42-20.3-23.57a5.63,5.63,0,0,1,11.26,0c0,1.24.37,12.31,9,12.31,8.94,0,9-11.81,9-12.31a5.63,5.63,0,0,1,11.26,0C416.19,414.69,412,430.11,395.89,430.11Z" transform="translate(-234.89 -298.08)"/><path class="cls-2" d="M380.88,390.47a5.63,5.63,0,0,1-5.63-5.63v-9.16a5.63,5.63,0,1,1,11.26,0v9.16A5.63,5.63,0,0,1,380.88,390.47Z" transform="translate(-234.89 -298.08)"/><path class="cls-2" d="M410.9,390.47a5.64,5.64,0,0,1-5.63-5.63v-9.16a5.63,5.63,0,1,1,11.26,0v9.16A5.63,5.63,0,0,1,410.9,390.47Z" transform="translate(-234.89 -298.08)"/></svg>